<svg width="44" height="48" viewBox="0 0 44 48" fill="none" xmlns="http://www.w3.org/2000/svg">
<path d="M37.8044 5.19944H36.3584V3.6217C36.3584 1.62384 34.782 0 32.8421 0C30.9008 0 29.3257 1.62384 29.3257 3.6217V5.19812H25.7172V3.6217C25.7172 1.62384 24.1408 0 22.2009 0C20.2609 0 18.6845 1.62384 18.6845 3.6217V5.19812H15.076V3.6217C15.076 1.62384 13.4996 0 11.5596 0C9.61973 0 8.04331 1.62384 8.04331 3.6217V5.19812H6.1969C3.11121 5.19812 0.599731 7.70961 0.599731 10.7953V42.4028C0.599731 45.4885 3.11121 48 6.1969 48H37.8044C40.8914 48 43.4016 45.4885 43.4016 42.4028V10.7953C43.4016 7.71092 40.8901 5.19944 37.8044 5.19944ZM31.3012 3.6217C31.3012 2.7143 31.9926 1.97547 32.8421 1.97547C33.6928 1.97547 34.3829 2.7143 34.3829 3.6217V10.0696C34.3829 10.977 33.6928 11.7159 32.8421 11.7159C31.9926 11.7159 31.3012 10.977 31.3012 10.0696V3.6217ZM20.66 3.6217C20.66 2.7143 21.3514 1.97547 22.2009 1.97547C23.0503 1.97547 23.7417 2.7143 23.7417 3.6217V10.0696C23.7417 10.977 23.0503 11.7159 22.2009 11.7159C21.3514 11.7159 20.66 10.977 20.66 10.0696V3.6217ZM10.0175 3.6217C10.0175 2.7143 10.7089 1.97547 11.5583 1.97547C12.4078 1.97547 13.0992 2.7143 13.0992 3.6217V10.0696C13.0992 10.977 12.4078 11.7159 11.5583 11.7159C10.7089 11.7159 10.0175 10.977 10.0175 10.0696V3.6217ZM40.1092 42.4042C40.1092 43.675 39.0753 44.7089 37.8044 44.7089H6.1969C4.92601 44.7089 3.89218 43.675 3.89218 42.4042V13.4306H40.1092V42.4042Z" fill="#219653"/>
<path d="M12.9069 19.2622H6.85541V24.6473H12.9069V19.2622Z" fill="#219653"/>
<path d="M20.9853 19.2622H14.9324V24.6473H20.9853V19.2622Z" fill="#219653"/>
<path d="M29.0676 19.2622H23.0161V24.6473H29.0676V19.2622Z" fill="#219653"/>
<path d="M37.146 19.2622H31.0931V24.6473H37.146V19.2622Z" fill="#219653"/>
<path d="M12.9069 26.4502H6.85541V31.8314H12.9069V26.4502Z" fill="#219653"/>
<path d="M20.9853 26.4502H14.9324V31.8314H20.9853V26.4502Z" fill="#219653"/>
<path d="M29.0676 26.4502H23.0161V31.8314H29.0676V26.4502Z" fill="#219653"/>
<path d="M37.146 26.4502H31.0931V31.8314H37.146V26.4502Z" fill="#219653"/>
<path d="M12.9069 33.6357H6.85541V39.0169H12.9069V33.6357Z" fill="#219653"/>
<path d="M20.9853 33.6357H14.9324V39.0169H20.9853V33.6357Z" fill="#219653"/>
<path d="M29.0676 33.6357H23.0161V39.0169H29.0676V33.6357Z" fill="#219653"/>
<path d="M37.146 33.6357H31.0931V39.0169H37.146V33.6357Z" fill="#219653"/>
</svg>
