<svg width="44" height="48" viewBox="0 0 44 48" fill="none" xmlns="http://www.w3.org/2000/svg">
<path d="M30.5521 20.625C30.5521 19.5894 29.7127 18.75 28.6771 18.75H9.36462C8.32906 18.75 7.48962 19.5894 7.48962 20.625C7.48962 21.6606 8.32906 22.5 9.36462 22.5H28.6771C29.7127 22.5 30.5521 21.6606 30.5521 20.625Z" fill="#219653"/>
<path d="M9.36462 26.25C8.32906 26.25 7.48962 27.0894 7.48962 28.125C7.48962 29.1606 8.32906 30 9.36462 30H21.0938C22.1293 30 22.9688 29.1606 22.9688 28.125C22.9688 27.0894 22.1293 26.25 21.0938 26.25H9.36462Z" fill="#219653"/>
<path d="M13.7708 44.25H7.5C5.43225 44.25 3.75 42.5677 3.75 40.5V7.5C3.75 5.43225 5.43225 3.75 7.5 3.75H30.5521C32.6198 3.75 34.3021 5.43225 34.3021 7.5V19.0312C34.3021 20.0668 35.1415 20.9062 36.1771 20.9062C37.2127 20.9062 38.0521 20.0668 38.0521 19.0312V7.5C38.0521 3.3645 34.6876 0 30.5521 0H7.5C3.3645 0 0 3.3645 0 7.5V40.5C0 44.6355 3.3645 48 7.5 48H13.7708C14.8064 48 15.6458 47.1606 15.6458 46.125C15.6458 45.0894 14.8064 44.25 13.7708 44.25Z" fill="#219653"/>
<path d="M41.3733 27.1476C39.1801 24.9544 35.6116 24.9543 33.4198 27.1461L23.1258 37.4173C22.9072 37.6355 22.7459 37.9041 22.6561 38.1996L20.4142 45.5801C20.2155 46.2345 20.3887 46.945 20.8662 47.4345C21.224 47.8011 21.71 48.0002 22.2084 48.0002C22.3752 48.0002 22.5436 47.9779 22.7089 47.932L30.2768 45.8357C30.5883 45.7494 30.8722 45.5841 31.1009 45.3558L41.3734 35.1026C43.5666 32.9094 43.5666 29.3409 41.3733 27.1476ZM28.8007 42.3534L24.9933 43.4081L26.1075 39.7398L33.0533 32.8093L35.7055 35.4615L28.8007 42.3534ZM38.7231 32.4499L38.3598 32.8124L35.7081 30.1607L36.0701 29.7994C36.8012 29.0683 37.9907 29.0683 38.7217 29.7994C39.4528 30.5304 39.4528 31.7199 38.7231 32.4499Z" fill="#219653"/>
<path d="M28.6771 11.25H9.36462C8.32906 11.25 7.48962 12.0894 7.48962 13.125C7.48962 14.1606 8.32906 15 9.36462 15H28.6771C29.7127 15 30.5521 14.1606 30.5521 13.125C30.5521 12.0894 29.7127 11.25 28.6771 11.25Z" fill="#219653"/>
</svg>
