<svg width="48" height="42" viewBox="0 0 48 42" fill="none" xmlns="http://www.w3.org/2000/svg">
<path fill-rule="evenodd" clip-rule="evenodd" d="M0.500061 5.71413C0.500061 2.86451 2.76986 0.499847 5.63642 0.499847H38.3637C41.2303 0.499847 43.5001 2.86451 43.5001 5.71413V15.9998C43.5001 16.8282 42.8285 17.4998 42.0001 17.4998C41.1717 17.4998 40.5001 16.8282 40.5001 15.9998V5.71413C40.5001 4.46107 39.5137 3.49985 38.3637 3.49985H5.63642C4.48636 3.49985 3.50006 4.46107 3.50006 5.71413V24.2856C3.50006 25.5386 4.48636 26.4998 5.63642 26.4998H20.0001C20.8285 26.4998 21.5001 27.1714 21.5001 27.9998C21.5001 28.8282 20.8285 29.4998 20.0001 29.4998H5.63642C2.76986 29.4998 0.500061 27.1352 0.500061 24.2856V5.71413Z" fill="#219653"/>
<path fill-rule="evenodd" clip-rule="evenodd" d="M0.500061 7.99985C0.500061 7.17143 1.17163 6.49985 2.00006 6.49985H42.0001C42.8285 6.49985 43.5001 7.17143 43.5001 7.99985C43.5001 8.82827 42.8285 9.49985 42.0001 9.49985H2.00006C1.17163 9.49985 0.500061 8.82827 0.500061 7.99985Z" fill="#219653"/>
<path fill-rule="evenodd" clip-rule="evenodd" d="M4.49998 18C4.49998 17.1716 5.17156 16.5 5.99998 16.5H9.99999C10.8284 16.5 11.5 17.1716 11.5 18C11.5 18.8284 10.8284 19.5 9.99999 19.5H5.99998C5.17156 19.5 4.49998 18.8284 4.49998 18Z" fill="#219653"/>
<path fill-rule="evenodd" clip-rule="evenodd" d="M4.49998 22.9999C4.49998 22.1715 5.17156 21.4999 5.99998 21.4999H14C14.8284 21.4999 15.5 22.1715 15.5 22.9999C15.5 23.8283 14.8284 24.4999 14 24.4999H5.99998C5.17156 24.4999 4.49998 23.8283 4.49998 22.9999Z" fill="#219653"/>
<path fill-rule="evenodd" clip-rule="evenodd" d="M24.5001 29.9999C24.5001 23.6487 29.6489 18.4999 36.0001 18.4999C42.3513 18.4999 47.5001 23.6487 47.5001 29.9999C47.5001 36.3511 42.3513 41.4999 36.0001 41.4999C29.6489 41.4999 24.5001 36.3511 24.5001 29.9999ZM41.0607 30.0605C41.6465 29.4747 41.6465 28.5251 41.0607 27.9393C40.4749 27.3535 39.5253 27.3535 38.9395 27.9393L36.0001 30.8785L34.0607 28.9393C33.4749 28.3535 32.5253 28.3535 31.9395 28.9393C31.3537 29.5251 31.3537 30.4747 31.9395 31.0605L34.9395 34.0605C35.5253 34.6463 36.4749 34.6463 37.0607 34.0605L41.0607 30.0605Z" fill="#219653"/>
</svg>
