<svg width="48" height="48" viewBox="0 0 48 48" fill="none" xmlns="http://www.w3.org/2000/svg">
<g clip-path="url(#clip0)">
<path d="M38.2715 13.9635C37.7758 6.339 31.553 0.366196 24.1047 0.366196C16.7185 0.366196 10.4963 6.33328 9.93844 13.961C9.71625 17.2948 10.7688 20.7426 12.9142 23.6843L22.8487 36.9653C23.1447 37.3611 23.6101 37.5943 24.1047 37.5943C24.5993 37.5943 25.0641 37.3612 25.3607 36.9653L35.2937 23.6864C37.4443 20.8195 38.5016 17.3654 38.2715 13.9635ZM32.7828 21.8051L24.1047 33.4066L15.4375 21.8203C13.7366 19.4878 12.8947 16.7704 13.0678 14.1795C13.4516 8.93137 17.6854 3.50288 24.1047 3.50288C30.5784 3.50288 34.8001 8.92452 35.141 14.1711C35.3209 16.8268 34.4837 19.5379 32.7828 21.8051Z" fill="#219653"/>
<path d="M24.0002 7.68577C20.7997 7.68577 18.1963 10.2892 18.1963 13.4897C18.1963 16.6902 20.7997 19.2937 24.0002 19.2937C27.2002 19.2937 29.8042 16.6902 29.8042 13.4897C29.8041 10.2891 27.2007 7.68577 24.0002 7.68577ZM24.0002 16.1563C22.5299 16.1563 21.3336 14.96 21.3336 13.4897C21.3336 11.9943 22.5048 10.8231 24.0002 10.8231C25.4956 10.8231 26.6668 11.9943 26.6668 13.4897C26.6668 14.96 25.4705 16.1563 24.0002 16.1563Z" fill="#219653"/>
<path d="M47.9287 45.5983L42.2816 27.5064C42.0777 26.8517 41.4711 26.4052 40.7846 26.4052H30.2748V29.5424H39.6312L44.2989 44.4966H3.75517L8.81185 29.5424H18.2487V26.4052H7.68666C7.01372 26.4052 6.41607 26.8339 6.20063 27.4708L0.0829866 45.5628C-0.0791068 46.0417 -0.0006382 46.5693 0.294205 46.9798C0.589048 47.3903 1.06333 47.6339 1.56902 47.6339H46.4317C46.9305 47.6339 47.4 47.397 47.6954 46.995C47.9908 46.5928 48.0776 46.0742 47.9287 45.5983Z" fill="#219653"/>
<path d="M17.9768 35.3141C17.6809 35.0008 17.2684 34.8231 16.8369 34.8231H5.12457V37.9603H15.1774L14.7481 45.5577L17.8801 45.7344L18.4029 36.4796C18.4275 36.0492 18.2733 35.6278 17.9768 35.3141Z" fill="#219653"/>
<path d="M42.4577 32.7842H33.3597C32.4933 32.7842 31.7911 33.4864 31.7911 34.3528C31.7911 35.2193 32.4933 35.9215 33.3597 35.9215H42.4577C43.3242 35.9215 44.0264 35.2193 44.0264 34.3528C44.0264 33.4864 43.3242 32.7842 42.4577 32.7842Z" fill="#219653"/>
<path d="M24.2616 38.4311C23.3951 38.4311 22.6929 39.1332 22.6929 39.9997V46.065H25.8302V41.5683H44.7059V38.4311H24.2616Z" fill="#219653"/>
</g>
<defs>
<clipPath id="clip0">
<rect width="48" height="48" fill="white"/>
</clipPath>
</defs>
</svg>
