<svg width="17" height="18" viewBox="0 0 17 18" fill="none" xmlns="http://www.w3.org/2000/svg">
<path d="M16.5374 12.9763L14.165 10.6039C13.3177 9.7566 11.8773 10.0955 11.5384 11.197C11.2842 11.9596 10.4369 12.3832 9.67435 12.2137C7.97978 11.7901 5.69211 9.58714 5.26847 7.80784C5.01428 7.04525 5.52265 6.19797 6.28521 5.94381C7.38668 5.6049 7.7256 4.16451 6.87831 3.31723L4.50591 0.944825C3.82808 0.351725 2.81134 0.351725 2.21824 0.944825L0.608393 2.55467C-1.00145 4.24924 0.777851 8.73986 4.7601 12.7221C8.74234 16.7043 13.233 18.5684 14.9275 16.8738L16.5374 15.264C17.1305 14.5861 17.1305 13.5694 16.5374 12.9763Z" fill="#219653"/>
</svg>
